<svg id="Ebene_1" data-name="Ebene 1" xmlns="http://www.w3.org/2000/svg" width="300mm" height="200mm" viewBox="0 0 850.39 566.93"><defs><style>.cls-1{fill:#fff;}.cls-2{fill:#e40422;}</style></defs><rect class="cls-1" x="1.42" y="1.42" width="847.56" height="564.09"/><path d="M0,0V566.93H850.39V0ZM5.67,5.67H566.93V277.8H5.67ZM844.72,561.26H5.67V283.46H844.72Zm0-283.46H572.6V5.67H844.72Z"/><path class="cls-2" d="M485.55,96v62.44c0,.81-.54,1.08-.95.27L449,95.47a2.38,2.38,0,0,0-2-1.08H431.7A1.56,1.56,0,0,0,430.08,96v91.16a1.56,1.56,0,0,0,1.62,1.62h13.22a1.56,1.56,0,0,0,1.62-1.62v-62.3c0-.81.54-1.08.95-.27l35.63,63.11a2.38,2.38,0,0,0,2,1.08H500.4a1.57,1.57,0,0,0,1.62-1.62V96a1.57,1.57,0,0,0-1.62-1.62H487.17A1.56,1.56,0,0,0,485.55,96m-95.36,92.78h13.36a1.56,1.56,0,0,0,1.62-1.62V96a1.56,1.56,0,0,0-1.62-1.62H390.19A1.57,1.57,0,0,0,388.57,96v91.16a1.57,1.57,0,0,0,1.62,1.62m-53.28-16.45V96a1.57,1.57,0,0,0-1.62-1.62H321.93A1.56,1.56,0,0,0,320.31,96v91.16a1.56,1.56,0,0,0,1.62,1.62h46a1.56,1.56,0,0,0,1.62-1.62V174.76a1.56,1.56,0,0,0-1.62-1.62H337.72a.77.77,0,0,1-.81-.8M249.61,110H261.9c10.93,0,19.7,5.8,19.7,17.8s-8.77,17.8-19.84,17.8H249.61a.78.78,0,0,1-.8-.81v-34a.71.71,0,0,1,.8-.8m31.32,78.75h17c1.35,0,1.76-.95.95-2l-20.25-27.37a.78.78,0,0,1,.27-1.21c12-4.86,20-15.51,20-30.34,0-21-15.93-33.45-36.17-33.45H233.82A1.57,1.57,0,0,0,232.2,96v91.16a1.57,1.57,0,0,0,1.62,1.62h13.37a1.57,1.57,0,0,0,1.62-1.62V162.09a.77.77,0,0,1,.8-.81h10.26a1.66,1.66,0,0,1,1.08.54L279,187.71a2.16,2.16,0,0,0,1.89,1.08m-73.26-80.37V96a1.57,1.57,0,0,0-1.62-1.62H156.92A1.57,1.57,0,0,0,155.3,96v91.16a1.57,1.57,0,0,0,1.62,1.62h49.13a1.57,1.57,0,0,0,1.62-1.62V174.76a1.57,1.57,0,0,0-1.62-1.62H172.58a.77.77,0,0,1-.81-.8V149.68a.78.78,0,0,1,.81-.81h33.47a1.56,1.56,0,0,0,1.62-1.62V135a1.57,1.57,0,0,0-1.62-1.62H172.58a.71.71,0,0,1-.81-.8V110.84a.77.77,0,0,1,.81-.8h33.47a1.57,1.57,0,0,0,1.62-1.62M102.45,173.14H88.14a.77.77,0,0,1-.81-.8V149.68a.72.72,0,0,1,.81-.81h14.31c8.77,0,13.63,5,13.63,12.14s-4.86,12.13-13.63,12.13M101.1,110c8.5,0,13.22,4.58,13.22,11.59s-4.72,11.73-13.22,11.73h-13a.71.71,0,0,1-.81-.8V110.84a.71.71,0,0,1,.81-.8Zm19.7,29.66a22.57,22.57,0,0,0,10.8-19.82c0-14.43-10-25.49-28.34-25.49H72.48A1.56,1.56,0,0,0,70.87,96v91.16a1.56,1.56,0,0,0,1.61,1.62h32c18.9,0,28.88-11.47,28.88-26.57,0-9.84-4.72-17.26-12.55-21.44-.54-.4-.54-.81,0-1.08"/><path d="M750.31,222.16s-4.95-32.87-7.3-46.73l1-.21a3.06,3.06,0,0,0,2-4.53C740.45,161,738.44,149,738.44,137A64.34,64.34,0,0,1,742,116c.13-.38.26-.75.4-1.13l.28-.81a62,62,0,0,0,5-18.43,52.39,52.39,0,0,0-4.1-25.28c-.15-.27-.3-.54-.46-.8a6.56,6.56,0,0,0,.86-8c-1.83-3.16-5.59-4.42-8.4-2.8-.29.17-1,.66-1.3.89-.51-.38-.81-.57-.81-.57s-.79-.52-1.47-.87c0,0-.26-.13-.26-.14a22.88,22.88,0,0,0-9.37-1.95,23.68,23.68,0,0,0-4.8.49,23.27,23.27,0,0,0-9.1,4.08,13.57,13.57,0,0,1-2.88.55l-3.8.18c-1.79.07-3.83,0-3.83,0A1.62,1.62,0,0,0,696.33,63c0,.08.59,5.3.59,5.32a4.27,4.27,0,0,0,1.79,3.25l.13.09a1.42,1.42,0,0,1,.6.62,5.87,5.87,0,0,0,1.84,2.62c.26.16.67.08.74-.21.73-2.85,2.43.22,5.66-1.53.83-.45,1.27,1.57.92,2.45l-.3.76a5.1,5.1,0,0,1-4,3.18c-1.43.21-2.25.35-2.23.55.17,1.61,0,3,1.62,4a3.94,3.94,0,0,0,.71.31c2.51.66,9.84,3.47.52,14.46a24.44,24.44,0,0,0-1.56,2,5.25,5.25,0,0,0-.51.89l-.2.39-28-10.47a6.38,6.38,0,0,1-2.44-2l-2.76-4.74a7.27,7.27,0,0,0-6.18-3.51,24.92,24.92,0,0,0-3.9,0c-.83,0-1.31.24-1.49.73a5.07,5.07,0,0,0,.61,3.51l2.4,4.41c.21.31,3.24,7.09,3.24,7.09a5.05,5.05,0,0,0,1.51,2.14L694.36,121l-30.29,15.11a3.72,3.72,0,0,1-2.85.29l-2.71-.82c-5-2.21-8.69-.67-10.88,1.16l-.85.81a1.44,1.44,0,0,0,.41,2.4s4.78,2.81,5.84,3.53l7.44,4.41a5.45,5.45,0,0,0,3.83.62l29.41-5.93a101.78,101.78,0,0,0,3.54,20.62,53,53,0,0,0-15,28.19c-1.42,7.94-1,15.13,1.21,23.59-4.11.23-8.07.83-11.36,3.12s-3.78,6.06-3.8,8l23,.05h1.94a3.29,3.29,0,0,0,3-2.44,15.48,15.48,0,0,0,.43-2.38,51.59,51.59,0,0,1,5.39-17.6,58.19,58.19,0,0,1,9.15-12.65,91.22,91.22,0,0,0,26,24.1,25.58,25.58,0,0,0-9.56,2.57,9.83,9.83,0,0,0-4.76,8.46h23.79a3.68,3.68,0,0,0,3.49-2.49,3.9,3.9,0,0,0,.12-.46c0-.11,0-.23,0-.34A3.14,3.14,0,0,0,750.31,222.16Z"/><path d="M92.11,336.18v2.55a.44.44,0,0,1-.5.5H82.88a.22.22,0,0,0-.25.25v30.65a.44.44,0,0,1-.5.5h-2.7a.44.44,0,0,1-.49-.5V339.48c0-.17-.09-.25-.26-.25H70a.44.44,0,0,1-.5-.5v-2.55a.44.44,0,0,1,.5-.5H91.61A.44.44,0,0,1,92.11,336.18Z"/><path d="M99.7,370.63H97.05a.44.44,0,0,1-.5-.5V335a.44.44,0,0,1,.5-.5H99.7a.44.44,0,0,1,.5.5v14.37c0,.17,0,.26.1.28s.15,0,.25-.18a7.56,7.56,0,0,1,2.54-1.82,8,8,0,0,1,3.3-.67,7.22,7.22,0,0,1,7.79,7.63v15.53a.44.44,0,0,1-.5.5H111a.44.44,0,0,1-.5-.5V355.2a5.11,5.11,0,0,0-1.24-3.72,4.8,4.8,0,0,0-3.6-1.27,5.72,5.72,0,0,0-3,.85,6.3,6.3,0,0,0-2.22,2.45,2.26,2.26,0,0,0-.25,1.05v15.57A.44.44,0,0,1,99.7,370.63Z"/><path d="M125.53,369.68a10.44,10.44,0,0,1-4.16-4.27,14.32,14.32,0,0,1,0-12.7,10.42,10.42,0,0,1,4-4.24,11.73,11.73,0,0,1,11.48,0,10.5,10.5,0,0,1,4,4.11,12,12,0,0,1,1.45,5.92,8.4,8.4,0,0,1-.05,1.14.47.47,0,0,1-.5.4H124.16c-.4,0-.55.22-.45.65a8.23,8.23,0,0,0,2.52,5.25,7.75,7.75,0,0,0,5.42,1.95,8.84,8.84,0,0,0,6.54-2.9c.36-.37.65-.44.85-.2l1.65,1.79a.39.39,0,0,1,0,.65,12.85,12.85,0,0,1-4.12,2.93,12.84,12.84,0,0,1-11-.48Zm12.91-13.13A7.6,7.6,0,0,0,136,352a7.07,7.07,0,0,0-4.82-1.72,7.14,7.14,0,0,0-4.87,1.77,7.45,7.45,0,0,0-2.47,4.57l0,.25c0,.2.17.3.5.3H138Q138.59,357.15,138.44,356.55Z"/><path d="M178.87,356.25v-2.54a.44.44,0,0,1,.5-.5H194a.44.44,0,0,1,.5.5,21.41,21.41,0,0,1-2.47,9.46,15.58,15.58,0,0,1-6.07,6.16,17.72,17.72,0,0,1-8.79,2.15,17.34,17.34,0,0,1-8.88-2.33,16.5,16.5,0,0,1-6.29-6.51,20.59,20.59,0,0,1,0-19,16.61,16.61,0,0,1,6.34-6.51,17.52,17.52,0,0,1,9-2.33,18.63,18.63,0,0,1,8.39,1.88,16,16,0,0,1,6.14,5.21.41.41,0,0,1,.1.31.45.45,0,0,1-.2.39l-2.19,1.5a.4.4,0,0,1-.3.1.48.48,0,0,1-.4-.2A11.72,11.72,0,0,0,184,339.9a15.67,15.67,0,0,0-6.72-1.42,13.61,13.61,0,0,0-7.11,1.85,12.94,12.94,0,0,0-4.89,5.16,17.57,17.57,0,0,0,0,15.33,12.82,12.82,0,0,0,4.86,5.17,13.52,13.52,0,0,0,7,1.84,12.54,12.54,0,0,0,13-10.83c.06-.17,0-.25-.21-.25H179.37A.44.44,0,0,1,178.87,356.25Z"/><path d="M204.21,369.5a11.51,11.51,0,0,1-4.2-4.39A12.86,12.86,0,0,1,200,353a11.51,11.51,0,0,1,4.2-4.39,11.79,11.79,0,0,1,11.93,0,11.55,11.55,0,0,1,4.19,4.39,12.86,12.86,0,0,1,0,12.13,11.55,11.55,0,0,1-4.19,4.39,11.73,11.73,0,0,1-11.93,0Zm10.08-2.89a8,8,0,0,0,2.84-3.17,9.89,9.89,0,0,0,0-8.79,8.06,8.06,0,0,0-2.84-3.17,7.84,7.84,0,0,0-8.24,0,8.14,8.14,0,0,0-2.84,3.17,9.89,9.89,0,0,0,0,8.79,8.07,8.07,0,0,0,2.84,3.17,7.84,7.84,0,0,0,8.24,0Z"/><path d="M241.72,347.47h2.8c.37,0,.5.18.4.54l-7.34,22.22a.62.62,0,0,1-.65.4h-3.84a.63.63,0,0,1-.65-.4L225.1,348l0-.19c0-.24.15-.35.45-.35h2.8a.58.58,0,0,1,.59.39l5.94,18.43a.2.2,0,0,0,.18.14.18.18,0,0,0,.17-.14l5.95-18.43A.56.56,0,0,1,241.72,347.47Z"/><path d="M253.78,369.68a10.52,10.52,0,0,1-4.17-4.27,13.24,13.24,0,0,1-1.49-6.36,13.1,13.1,0,0,1,1.47-6.34,10.4,10.4,0,0,1,4-4.24,11.73,11.73,0,0,1,11.48,0,10.45,10.45,0,0,1,4,4.11,12.1,12.1,0,0,1,1.45,5.92,10.46,10.46,0,0,1-.05,1.14.47.47,0,0,1-.5.4H252.41c-.4,0-.55.22-.45.65a8.18,8.18,0,0,0,2.52,5.25,7.73,7.73,0,0,0,5.42,1.95,8.84,8.84,0,0,0,6.54-2.9c.36-.37.64-.44.84-.2l1.65,1.79c.24.2.24.42,0,.65a12.74,12.74,0,0,1-4.12,2.93,12.82,12.82,0,0,1-11-.48Zm12.9-13.13a7.59,7.59,0,0,0-2.46-4.57,7.6,7.6,0,0,0-9.69,0,7.45,7.45,0,0,0-2.47,4.57l-.05.25c0,.2.16.3.49.3h13.74C266.64,357.15,266.79,357,266.68,356.55Z"/><path d="M287.1,347c.3,0,.45.17.45.5v2.65c0,.3-.12.45-.35.45a3.65,3.65,0,0,1-.72-.07,2.91,2.91,0,0,0-.68-.08,6.28,6.28,0,0,0-5.48,2.94,2.09,2.09,0,0,0-.35,1.25v15.48a.44.44,0,0,1-.5.5h-2.65a.44.44,0,0,1-.5-.5V348a.44.44,0,0,1,.5-.5h2.39a.44.44,0,0,1,.5.5v1.79c0,.13,0,.22.11.25s.15,0,.24-.1a7.81,7.81,0,0,1,6.29-2.94A6.3,6.3,0,0,1,287.1,347Z"/><path d="M295.34,370.63h-2.65a.44.44,0,0,1-.5-.5V348a.44.44,0,0,1,.5-.5h2.4a.44.44,0,0,1,.5.5v1.64c0,.13,0,.22.12.25s.18,0,.27-.15a8.77,8.77,0,0,1,2.65-2A7.83,7.83,0,0,1,302,347a7.54,7.54,0,0,1,5.74,2.14,7.62,7.62,0,0,1,2.05,5.49v15.53a.44.44,0,0,1-.5.5h-2.64a.44.44,0,0,1-.5-.5V355.2a5.12,5.12,0,0,0-1.25-3.72,4.8,4.8,0,0,0-3.59-1.27,5.57,5.57,0,0,0-3,.85,6.67,6.67,0,0,0-2.24,2.45,2.26,2.26,0,0,0-.25,1.05v15.57A.44.44,0,0,1,295.34,370.63Z"/><path d="M317.12,341.25a2.67,2.67,0,0,1-.82-1.92,2.57,2.57,0,0,1,.82-1.9,2.73,2.73,0,0,1,1.93-.8,2.55,2.55,0,0,1,1.85.8,2.59,2.59,0,0,1,.8,1.9,2.69,2.69,0,0,1-.8,1.92,2.5,2.5,0,0,1-1.85.83A2.68,2.68,0,0,1,317.12,341.25Zm0,28.88V348a.44.44,0,0,1,.5-.5h2.65a.44.44,0,0,1,.5.5v22.16a.44.44,0,0,1-.5.5h-2.65A.44.44,0,0,1,317.15,370.13Z"/><path d="M331.53,370.63h-2.65a.44.44,0,0,1-.5-.5V348a.44.44,0,0,1,.5-.5h2.4a.44.44,0,0,1,.5.5v1.64c0,.13,0,.22.13.25s.17,0,.27-.15a8.74,8.74,0,0,1,2.64-2,7.85,7.85,0,0,1,3.4-.69A7.22,7.22,0,0,1,346,354.6v15.53a.44.44,0,0,1-.5.5h-2.65a.44.44,0,0,1-.5-.5V355.2a5.11,5.11,0,0,0-1.24-3.72,4.82,4.82,0,0,0-3.6-1.27,5.54,5.54,0,0,0-3,.85,6.69,6.69,0,0,0-2.25,2.45,2.26,2.26,0,0,0-.25,1.05v15.57A.44.44,0,0,1,331.53,370.63Z"/><path d="M357.84,379.89a11.58,11.58,0,0,1-3.89-2.77.48.48,0,0,1,0-.7l1.69-1.85a.58.58,0,0,1,.35-.2.56.56,0,0,1,.35.2,9.47,9.47,0,0,0,12.23,1.37,6,6,0,0,0,1.95-4.91v-3.45a.24.24,0,0,0-.15-.25c-.1,0-.22,0-.35.15a9.91,9.91,0,0,1-7.19,2.65,11.15,11.15,0,0,1-5.64-1.45,10.29,10.29,0,0,1-4-4.09,12.52,12.52,0,0,1-1.44-6.09,11.93,11.93,0,0,1,1.5-6,10.65,10.65,0,0,1,4.06-4.07A11.52,11.52,0,0,1,363,347a9.51,9.51,0,0,1,7.24,2.79c.13.13.24.19.32.15s.13-.13.13-.3V348a.45.45,0,0,1,.15-.35.44.44,0,0,1,.35-.15h2.44a.44.44,0,0,1,.5.5v23.36a8.62,8.62,0,0,1-3.07,7.06,12.21,12.21,0,0,1-8,2.52A12.79,12.79,0,0,1,357.84,379.89Zm9.73-14.05a7.2,7.2,0,0,0,2.75-2.55,1.65,1.65,0,0,0,.25-.9v-7.74a1.52,1.52,0,0,0-.25-.9,7.25,7.25,0,0,0-2.75-2.54,8.34,8.34,0,0,0-4-.95,7.76,7.76,0,0,0-5.82,2.29,9.14,9.14,0,0,0,0,11.94,7.73,7.73,0,0,0,5.82,2.29A8.34,8.34,0,0,0,367.57,365.84Z"/><path d="M395.58,370.13V336.18a.44.44,0,0,1,.5-.5h3.44a.77.77,0,0,1,.65.35l9.59,16c.09.17.18.25.24.25s.15-.08.26-.25l9.58-16a.77.77,0,0,1,.65-.35h3.44a.44.44,0,0,1,.5.5v33.95a.44.44,0,0,1-.5.5h-2.69a.44.44,0,0,1-.5-.5V342.37c0-.16-.05-.27-.13-.29s-.16,0-.22.19l-9.84,16a.69.69,0,0,1-.55.35.71.71,0,0,1-.55-.35l-9.83-16c-.07-.17-.14-.23-.22-.19s-.13.13-.13.29v27.76a.44.44,0,0,1-.5.5h-2.69A.44.44,0,0,1,395.58,370.13Z"/><path d="M436.41,369.61a10.92,10.92,0,0,1-4.09-4.27,13.94,13.94,0,0,1,0-12.58,10.85,10.85,0,0,1,4.09-4.27A11.18,11.18,0,0,1,442.2,347c3.27,0,5.78,1,7.54,3.09.07.07.13.09.2.05s.1-.1.1-.2V348a.44.44,0,0,1,.5-.5H453a.44.44,0,0,1,.5.5v22.16a.44.44,0,0,1-.5.5h-2.44a.44.44,0,0,1-.5-.5v-1.95a.2.2,0,0,0-.1-.2.18.18,0,0,0-.2,0,10.29,10.29,0,0,1-7.54,3.1A11.28,11.28,0,0,1,436.41,369.61ZM447,366.84a6.26,6.26,0,0,0,2.69-2.7,2,2,0,0,0,.2-.9v-8.39a2,2,0,0,0-.2-.9,6.78,6.78,0,0,0-2.77-2.69,8.4,8.4,0,0,0-4.12-1,7.8,7.8,0,0,0-6,2.42,10.06,10.06,0,0,0,0,12.73,7.8,7.8,0,0,0,6,2.42A8.8,8.8,0,0,0,447,366.84Z"/><path d="M475.4,347.47h2.75c.39,0,.55.18.44.54L467,380.06a.57.57,0,0,1-.59.4h-2.7c-.44,0-.59-.22-.45-.65l3.29-9.13a1.2,1.2,0,0,0,.1-.55,1.06,1.06,0,0,0-.1-.5l-8-21.57,0-.2c0-.26.16-.39.46-.39h2.84a.58.58,0,0,1,.6.39l5.89,16.93q.15.3.3.3t.3-.3l5.89-16.93A.62.62,0,0,1,475.4,347.47Z"/><path d="M487.25,369.5a11.63,11.63,0,0,1-4.19-4.39,12.86,12.86,0,0,1,0-12.13,11.63,11.63,0,0,1,4.19-4.39,11.81,11.81,0,0,1,11.94,0,11.48,11.48,0,0,1,4.19,4.39,12.86,12.86,0,0,1,0,12.13,11.48,11.48,0,0,1-4.19,4.39,11.75,11.75,0,0,1-11.94,0Zm10.09-2.89a8.17,8.17,0,0,0,2.85-3.17,10,10,0,0,0,0-8.79,8.24,8.24,0,0,0-2.85-3.17,7.84,7.84,0,0,0-8.24,0,8.14,8.14,0,0,0-2.84,3.17,9.89,9.89,0,0,0,0,8.79,8.07,8.07,0,0,0,2.84,3.17,7.84,7.84,0,0,0,8.24,0Z"/><path d="M521.63,347c.3,0,.45.17.45.5v2.65c0,.3-.12.45-.35.45a3.51,3.51,0,0,1-.72-.07,3,3,0,0,0-.68-.08,6.29,6.29,0,0,0-5.49,2.94,2.17,2.17,0,0,0-.35,1.25v15.48a.44.44,0,0,1-.5.5h-2.65a.44.44,0,0,1-.5-.5V348a.44.44,0,0,1,.5-.5h2.4a.44.44,0,0,1,.5.5v1.79c0,.13,0,.22.1.25s.15,0,.25-.1a7.81,7.81,0,0,1,6.29-2.94A6.44,6.44,0,0,1,521.63,347Z"/><path d="M76.26,434.11a11.51,11.51,0,0,1-4.19-4.4,12.79,12.79,0,0,1,0-12.13,11.63,11.63,0,0,1,4.19-4.39,11.79,11.79,0,0,1,11.93,0,11.48,11.48,0,0,1,4.19,4.39,12.79,12.79,0,0,1,0,12.13,11.64,11.64,0,0,1-16.12,4.4Zm10.09-2.89A8.17,8.17,0,0,0,89.19,428a9.87,9.87,0,0,0,0-8.78,8.07,8.07,0,0,0-2.84-3.17,7.84,7.84,0,0,0-8.24,0,8.09,8.09,0,0,0-2.85,3.17,10,10,0,0,0,0,8.78,8.19,8.19,0,0,0,2.85,3.18,7.84,7.84,0,0,0,8.24,0Z"/><path d="M100.45,434.73V415.46a.22.22,0,0,0-.25-.25h-2a.51.51,0,0,1-.35-.12.37.37,0,0,1-.15-.32v-2.2a.44.44,0,0,1,.5-.5h2a.22.22,0,0,0,.25-.25v-7.39a6.24,6.24,0,0,1,1.4-4.32,5,5,0,0,1,4-1.57,7.05,7.05,0,0,1,2.75.65c.3.17.41.37.35.6l-.7,2.34c-.1.31-.32.37-.65.2a3.36,3.36,0,0,0-1.45-.39,1.8,1.8,0,0,0-1.5.7,3.12,3.12,0,0,0-.54,2v7.19a.22.22,0,0,0,.24.25h3.1a.44.44,0,0,1,.5.5v2.2a.39.39,0,0,1-.15.32.55.55,0,0,1-.35.12h-3.1c-.16,0-.24.08-.24.25v19.27a.56.56,0,0,1-.13.35.41.41,0,0,1-.33.15H101A.44.44,0,0,1,100.45,434.73Z"/><path d="M142.75,401.48a8.27,8.27,0,0,1,3.45,3.3,9.58,9.58,0,0,1,1.18,4.74,8.48,8.48,0,0,1-1.16,4.37,8.06,8.06,0,0,1-3.09,3.07c-.33.2-.33.38,0,.55a9,9,0,0,1,5,8.14,9.14,9.14,0,0,1-2.79,6.88c-1.87,1.81-4.5,2.7-7.89,2.7H127.35a.44.44,0,0,1-.5-.5v-34a.45.45,0,0,1,.5-.5h10A11.52,11.52,0,0,1,142.75,401.48Zm-12.2,2.6v11.33a.22.22,0,0,0,.25.25h6.09a7.1,7.1,0,0,0,4.94-1.55,5.57,5.57,0,0,0,1.7-4.34,5.64,5.64,0,0,0-1.7-4.36,7,7,0,0,0-4.94-1.58H130.8A.22.22,0,0,0,130.55,404.08Zm0,15.38v12a.22.22,0,0,0,.25.25h6.29a7.73,7.73,0,0,0,5.36-1.65,6.68,6.68,0,0,0,0-9.19,7.78,7.78,0,0,0-5.36-1.64H130.8A.22.22,0,0,0,130.55,419.46Z"/><path d="M159,434.28a10.5,10.5,0,0,1-4.17-4.26,13.28,13.28,0,0,1-1.49-6.37,13.1,13.1,0,0,1,1.47-6.34,10.52,10.52,0,0,1,4-4.24,11.23,11.23,0,0,1,5.77-1.5,11.12,11.12,0,0,1,5.71,1.5,10.54,10.54,0,0,1,4,4.12,11.93,11.93,0,0,1,1.45,5.91,10.81,10.81,0,0,1-.05,1.15.47.47,0,0,1-.5.4H157.61c-.4,0-.55.22-.45.65a8.18,8.18,0,0,0,2.52,5.24,7.73,7.73,0,0,0,5.42,1.95,8.84,8.84,0,0,0,6.54-2.9c.36-.36.64-.43.84-.2l1.65,1.8a.37.37,0,0,1,0,.64,12.59,12.59,0,0,1-4.12,2.93,12.1,12.1,0,0,1-4.91,1A12.28,12.28,0,0,1,159,434.28Zm12.9-13.12a7.62,7.62,0,0,0-2.46-4.58,7.58,7.58,0,0,0-9.69.06,7.42,7.42,0,0,0-2.47,4.56l0,.25c0,.2.16.3.49.3h13.74C171.84,421.75,172,421.55,171.88,421.16Z"/><path d="M192.3,411.62c.3,0,.45.16.45.5v2.65c0,.29-.12.44-.35.44a3.65,3.65,0,0,1-.72-.07,3.56,3.56,0,0,0-.68-.08,6.29,6.29,0,0,0-5.48,2.95,2.07,2.07,0,0,0-.35,1.25v15.47a.44.44,0,0,1-.5.5H182a.44.44,0,0,1-.5-.5V412.57a.44.44,0,0,1,.5-.5h2.39a.44.44,0,0,1,.5.5v1.79c0,.14,0,.22.11.25s.15,0,.24-.1a7.81,7.81,0,0,1,6.29-2.94A4.45,4.45,0,0,1,192.3,411.62Z"/><path d="M203.59,432.68v2.25a.44.44,0,0,1-.5.5h-.9a5.4,5.4,0,0,1-3.65-1.12,4.34,4.34,0,0,1-1.3-3.47V399.59a.44.44,0,0,1,.5-.5h2.65a.44.44,0,0,1,.5.5v30.8c0,1.2.5,1.79,1.5,1.79h.7A.44.44,0,0,1,203.59,432.68Z"/><path d="M209.25,405.85a2.61,2.61,0,0,1-.82-1.92,2.57,2.57,0,0,1,.82-1.9,2.68,2.68,0,0,1,1.93-.79A2.53,2.53,0,0,1,213,402a2.62,2.62,0,0,1,.8,1.9,2.67,2.67,0,0,1-.8,1.92,2.5,2.5,0,0,1-1.84.83A2.64,2.64,0,0,1,209.25,405.85Zm0,28.88V412.57a.44.44,0,0,1,.5-.5h2.64a.44.44,0,0,1,.5.5v22.16a.44.44,0,0,1-.5.5h-2.64A.44.44,0,0,1,209.28,434.73Z"/><path d="M223.65,435.23H221a.44.44,0,0,1-.5-.5V412.57a.44.44,0,0,1,.5-.5h2.39a.44.44,0,0,1,.5.5v1.65q0,.19.12.24c.09,0,.18,0,.28-.15a8.62,8.62,0,0,1,2.65-2,7.63,7.63,0,0,1,3.39-.7,7.53,7.53,0,0,1,5.74,2.15,7.63,7.63,0,0,1,2,5.49v15.52a.44.44,0,0,1-.5.5H235a.44.44,0,0,1-.5-.5V419.81a5,5,0,0,0-1.25-3.72,4.8,4.8,0,0,0-3.59-1.28,5.57,5.57,0,0,0-3,.85,6.76,6.76,0,0,0-2.24,2.45,2.26,2.26,0,0,0-.25,1.05v15.57A.44.44,0,0,1,223.65,435.23Z"/><path d="M75,498.59a11.24,11.24,0,0,1-4.28-5.79l0-.2a.47.47,0,0,1,.35-.45l2.54-1a.49.49,0,0,1,.25-.05.33.33,0,0,1,.25.1.53.53,0,0,1,.15.25,7.67,7.67,0,0,0,2.87,4.19,8.16,8.16,0,0,0,4.92,1.5,7.73,7.73,0,0,0,5.47-1.8,6.69,6.69,0,0,0,.19-9.18,9,9,0,0,0-4.71-2.3l-2.55-.5a11.17,11.17,0,0,1-6.31-3.22,8.9,8.9,0,0,1-2.33-6.36,9.28,9.28,0,0,1,1.35-4.87,9.77,9.77,0,0,1,3.72-3.52,11.91,11.91,0,0,1,11.91.63,10.81,10.81,0,0,1,4,5.26.27.27,0,0,1,.05.2.49.49,0,0,1-.35.45L89.82,473a.49.49,0,0,1-.25.06.36.36,0,0,1-.25-.1.58.58,0,0,1-.15-.25A8.08,8.08,0,0,0,86.4,469a7,7,0,0,0-4.17-1.35,6.69,6.69,0,0,0-4.82,1.7,5.75,5.75,0,0,0-1.77,4.34,5.56,5.56,0,0,0,1.4,3.9,7.14,7.14,0,0,0,4.14,2.05l2.54.49a13.76,13.76,0,0,1,6.85,3.4,9,9,0,0,1,2.69,6.89,10.24,10.24,0,0,1-1.37,5.24A9.63,9.63,0,0,1,88,499.33a12.82,12.82,0,0,1-6,1.35A11.94,11.94,0,0,1,75,498.59Z"/><path d="M103.62,498.89a10.52,10.52,0,0,1-4.17-4.27,14.28,14.28,0,0,1,0-12.7,10.55,10.55,0,0,1,4-4.25,11.26,11.26,0,0,1,5.77-1.5,11.12,11.12,0,0,1,5.71,1.5,10.61,10.61,0,0,1,4,4.12,12,12,0,0,1,1.45,5.91,10.68,10.68,0,0,1,0,1.15.48.48,0,0,1-.5.4H102.25c-.4,0-.55.22-.45.65a8.13,8.13,0,0,0,2.52,5.24,7.68,7.68,0,0,0,5.41,1.95,8.83,8.83,0,0,0,6.54-2.89c.37-.37.66-.44.85-.21l1.65,1.8a.39.39,0,0,1,0,.65,12.56,12.56,0,0,1-4.12,2.92,12,12,0,0,1-4.92,1A12.37,12.37,0,0,1,103.62,498.89Zm12.9-13.13a7.53,7.53,0,0,0-2.47-4.57,7,7,0,0,0-4.81-1.72,7.12,7.12,0,0,0-4.87,1.77,7.45,7.45,0,0,0-2.47,4.56l-.05.26c0,.2.16.3.5.3h13.73C116.47,486.36,116.62,486.15,116.52,485.76Z"/><path d="M129.3,499.83h-2.64a.44.44,0,0,1-.5-.5V477.17a.44.44,0,0,1,.5-.5h2.4a.44.44,0,0,1,.5.5v1.65c0,.13,0,.22.12.25s.17,0,.27-.15a8.5,8.5,0,0,1,2.65-2.05,7.63,7.63,0,0,1,3.39-.7,7.23,7.23,0,0,1,7.79,7.64v15.52a.44.44,0,0,1-.5.5h-2.64a.44.44,0,0,1-.5-.5V484.41a5.12,5.12,0,0,0-1.25-3.72,4.8,4.8,0,0,0-3.59-1.27,5.56,5.56,0,0,0-3,.84,6.77,6.77,0,0,0-2.25,2.45,2.45,2.45,0,0,0-.25,1.05v15.57A.44.44,0,0,1,129.3,499.83Z"/><path d="M155.06,498.81a10.89,10.89,0,0,1-4.09-4.26A14,14,0,0,1,151,482a10.92,10.92,0,0,1,4.09-4.27,11.3,11.3,0,0,1,5.79-1.52q4.91,0,7.54,3.1a.18.18,0,0,0,.2.05.21.21,0,0,0,.1-.2v-1.95a.44.44,0,0,1,.5-.5h2.45a.44.44,0,0,1,.49.5v22.16c0,.34-.16.5-.49.5h-2.45a.44.44,0,0,1-.5-.5v-1.94c0-.1,0-.17-.1-.2s-.13,0-.2.05a10.29,10.29,0,0,1-7.54,3.09A11.2,11.2,0,0,1,155.06,498.81ZM165.6,496a6.18,6.18,0,0,0,2.69-2.69,2,2,0,0,0,.2-.9v-8.39a2,2,0,0,0-.2-.9,6.87,6.87,0,0,0-2.77-2.7,8.45,8.45,0,0,0-4.12-1,7.8,7.8,0,0,0-6,2.42,10.06,10.06,0,0,0,0,12.73,7.8,7.8,0,0,0,6,2.42A8.69,8.69,0,0,0,165.6,496Z"/><path d="M181.27,467.63l2.7-1.44a.57.57,0,0,1,.24-.05c.24,0,.35.13.35.4v9.88c0,.17.09.25.26.25h2.74a.44.44,0,0,1,.5.5v2.15a.44.44,0,0,1-.5.5h-2.74c-.17,0-.26.08-.26.24v19.27a.44.44,0,0,1-.5.5h-2.64a.44.44,0,0,1-.5-.5V480.06c0-.16-.08-.24-.25-.24h-2.74a.44.44,0,0,1-.5-.5v-2.15a.44.44,0,0,1,.5-.5h2.74a.22.22,0,0,0,.25-.25v-8.18A.61.61,0,0,1,181.27,467.63Z"/><path d="M197.07,498.89a10.52,10.52,0,0,1-4.17-4.27,14.41,14.41,0,0,1,0-12.7,10.51,10.51,0,0,1,4-4.25,11.73,11.73,0,0,1,11.48,0,10.61,10.61,0,0,1,4,4.12,12.06,12.06,0,0,1,1.45,5.91,10.68,10.68,0,0,1-.05,1.15.48.48,0,0,1-.5.4H195.7c-.41,0-.55.22-.45.65a8.13,8.13,0,0,0,2.52,5.24,7.69,7.69,0,0,0,5.42,1.95,8.83,8.83,0,0,0,6.53-2.89c.37-.37.65-.44.85-.21l1.65,1.8a.39.39,0,0,1,0,.65,12.56,12.56,0,0,1-4.12,2.92,12.1,12.1,0,0,1-4.91,1A12.38,12.38,0,0,1,197.07,498.89ZM210,485.76a7.53,7.53,0,0,0-2.47-4.57,7,7,0,0,0-4.81-1.72,7.14,7.14,0,0,0-4.87,1.77,7.4,7.4,0,0,0-2.47,4.56l-.06.26c0,.2.17.3.5.3h13.73C209.93,486.36,210.07,486.15,210,485.76Z"/><path d="M239.77,498.36a16.55,16.55,0,0,1-6.28-6.49,20.81,20.81,0,0,1,0-19,16.62,16.62,0,0,1,6.28-6.49,17.48,17.48,0,0,1,8.94-2.32,18.22,18.22,0,0,1,8.69,2.07,15.79,15.79,0,0,1,6.14,5.77.62.62,0,0,1,0,.25.44.44,0,0,1-.25.4l-2.15,1.4a.74.74,0,0,1-.4.15.59.59,0,0,1-.5-.35,12.18,12.18,0,0,0-4.84-4.55,14.76,14.76,0,0,0-6.74-1.49,13.57,13.57,0,0,0-7.06,1.84,12.85,12.85,0,0,0-4.87,5.17,17.66,17.66,0,0,0,0,15.33,12.76,12.76,0,0,0,4.87,5.16,13.48,13.48,0,0,0,7.06,1.85,14.64,14.64,0,0,0,6.74-1.5,12.09,12.09,0,0,0,4.84-4.54.59.59,0,0,1,.5-.35.87.87,0,0,1,.4.15l2.15,1.4c.3.17.37.38.2.65a15.69,15.69,0,0,1-6.14,5.76,18.22,18.22,0,0,1-8.69,2.07A17.48,17.48,0,0,1,239.77,498.36Z"/><path d="M272.33,499.83h-2.65a.44.44,0,0,1-.5-.5V464.19a.44.44,0,0,1,.5-.5h2.65a.44.44,0,0,1,.49.5v14.38c0,.16,0,.25.1.27s.15,0,.25-.17a7.47,7.47,0,0,1,2.55-1.82,7.9,7.9,0,0,1,3.29-.68,7.23,7.23,0,0,1,7.79,7.64v15.52a.44.44,0,0,1-.5.5h-2.65a.44.44,0,0,1-.5-.5V484.41a5.11,5.11,0,0,0-1.24-3.72,4.8,4.8,0,0,0-3.6-1.27,5.71,5.71,0,0,0-3,.84,6.37,6.37,0,0,0-2.22,2.45,2.45,2.45,0,0,0-.25,1.05v15.57C272.82,499.67,272.66,499.83,272.33,499.83Z"/><path d="M298.08,498.81a10.89,10.89,0,0,1-4.09-4.26A14,14,0,0,1,294,482a10.92,10.92,0,0,1,4.09-4.27,11.31,11.31,0,0,1,5.8-1.52,9.35,9.35,0,0,1,7.53,3.1.18.18,0,0,0,.2.05.21.21,0,0,0,.1-.2v-1.95a.44.44,0,0,1,.5-.5h2.45a.44.44,0,0,1,.5.5v22.16a.44.44,0,0,1-.5.5h-2.45a.44.44,0,0,1-.5-.5v-1.94c0-.1,0-.17-.1-.2s-.13,0-.2.05a10.25,10.25,0,0,1-7.53,3.09A11.21,11.21,0,0,1,298.08,498.81ZM308.61,496a6.1,6.1,0,0,0,2.7-2.69,1.92,1.92,0,0,0,.2-.9v-8.39a1.92,1.92,0,0,0-.2-.9,6.87,6.87,0,0,0-2.77-2.7,8.51,8.51,0,0,0-4.12-1,7.8,7.8,0,0,0-6,2.42,10.06,10.06,0,0,0,0,12.73,7.8,7.8,0,0,0,6,2.42A8.57,8.57,0,0,0,308.61,496Z"/><path d="M325.94,499.83h-2.65a.44.44,0,0,1-.5-.5V477.17a.44.44,0,0,1,.5-.5h2.4a.44.44,0,0,1,.5.5v1.65c0,.13,0,.22.12.25s.18,0,.28-.15a8.58,8.58,0,0,1,2.64-2.05,7.7,7.7,0,0,1,3.4-.7,7.57,7.57,0,0,1,5.74,2.15,7.65,7.65,0,0,1,2.05,5.49v15.52a.44.44,0,0,1-.5.5h-2.65a.44.44,0,0,1-.5-.5V484.41a5.07,5.07,0,0,0-1.25-3.72,4.8,4.8,0,0,0-3.59-1.27,5.56,5.56,0,0,0-3,.84,6.75,6.75,0,0,0-2.24,2.45,2.32,2.32,0,0,0-.25,1.05v15.57A.44.44,0,0,1,325.94,499.83Z"/><path d="M347.58,482a10.59,10.59,0,0,1,4.12-4.27,11.83,11.83,0,0,1,6-1.52,11.69,11.69,0,0,1,5.46,1.28,9.32,9.32,0,0,1,3.87,3.62.45.45,0,0,1,.05.24.48.48,0,0,1-.25.45l-2.14,1.2-.26.1c-.13,0-.28-.1-.44-.3a6.38,6.38,0,0,0-2.6-2.39,7.9,7.9,0,0,0-3.69-.85,7.3,7.3,0,0,0-5.75,2.42,10.39,10.39,0,0,0,0,12.63,7.33,7.33,0,0,0,5.75,2.42,7.57,7.57,0,0,0,3.61-.85,7.18,7.18,0,0,0,2.68-2.4c.2-.3.43-.36.7-.19l2.14,1.19a.5.5,0,0,1,.2.7,8,8,0,0,1-3.71,3.65,12.56,12.56,0,0,1-5.62,1.24,11.73,11.73,0,0,1-6-1.52,10.56,10.56,0,0,1-4.12-4.26,14.21,14.21,0,0,1,0-12.59Z"/><path d="M376.58,498.89a10.52,10.52,0,0,1-4.17-4.27,14.36,14.36,0,0,1,0-12.7,10.55,10.55,0,0,1,4-4.25,11.75,11.75,0,0,1,11.49,0,10.59,10.59,0,0,1,4,4.12,12,12,0,0,1,1.45,5.91,8.56,8.56,0,0,1-.05,1.15.47.47,0,0,1-.5.4H375.21c-.4,0-.55.22-.45.65a8.18,8.18,0,0,0,2.52,5.24,7.69,7.69,0,0,0,5.42,1.95,8.86,8.86,0,0,0,6.54-2.89c.36-.37.65-.44.84-.21l1.66,1.8a.39.39,0,0,1,0,.65,12.66,12.66,0,0,1-4.12,2.92,12.11,12.11,0,0,1-4.92,1A12.38,12.38,0,0,1,376.58,498.89Zm12.91-13.13a7.58,7.58,0,0,0-2.47-4.57,7.07,7.07,0,0,0-4.82-1.72,7.14,7.14,0,0,0-4.87,1.77,7.45,7.45,0,0,0-2.47,4.56l-.05.26c0,.2.17.3.5.3H389C389.44,486.36,389.59,486.15,389.49,485.76Z"/><path d="M405.31,497.29v2.24a.44.44,0,0,1-.5.5h-.9a5.39,5.39,0,0,1-3.64-1.12,4.33,4.33,0,0,1-1.3-3.47V464.19a.44.44,0,0,1,.5-.5h2.65a.44.44,0,0,1,.5.5V495c0,1.2.5,1.8,1.49,1.8h.7A.44.44,0,0,1,405.31,497.29Z"/><path d="M417.2,497.29v2.24a.44.44,0,0,1-.5.5h-.9a5.38,5.38,0,0,1-3.65-1.12,4.33,4.33,0,0,1-1.3-3.47V464.19a.44.44,0,0,1,.5-.5H414a.44.44,0,0,1,.5.5V495q0,1.8,1.5,1.8h.7A.44.44,0,0,1,417.2,497.29Z"/><path d="M426.45,498.89a10.52,10.52,0,0,1-4.17-4.27,14.36,14.36,0,0,1,0-12.7,10.55,10.55,0,0,1,4-4.25,11.75,11.75,0,0,1,11.49,0,10.59,10.59,0,0,1,4,4.12,12,12,0,0,1,1.45,5.91,10.68,10.68,0,0,1-.05,1.15.48.48,0,0,1-.5.4H425.08c-.4,0-.55.22-.45.65a8.18,8.18,0,0,0,2.52,5.24,7.69,7.69,0,0,0,5.42,1.95,8.83,8.83,0,0,0,6.53-2.89c.37-.37.66-.44.85-.21l1.66,1.8a.4.4,0,0,1,0,.65,12.66,12.66,0,0,1-4.12,2.92,12.11,12.11,0,0,1-4.92,1A12.38,12.38,0,0,1,426.45,498.89Zm12.91-13.13a7.63,7.63,0,0,0-2.47-4.57,7.07,7.07,0,0,0-4.82-1.72,7.14,7.14,0,0,0-4.87,1.77,7.45,7.45,0,0,0-2.47,4.56l-.05.26c0,.2.17.3.5.3h13.73C439.31,486.36,439.45,486.15,439.36,485.76Z"/><path d="M459.78,476.22c.29,0,.44.17.44.5v2.65c0,.3-.11.45-.35.45a3.69,3.69,0,0,1-.72-.08,3.47,3.47,0,0,0-.67-.07,6.31,6.31,0,0,0-5.5,2.94,2.14,2.14,0,0,0-.35,1.25v15.47c0,.34-.16.5-.49.5h-2.65a.44.44,0,0,1-.5-.5V477.17a.44.44,0,0,1,.5-.5h2.4a.44.44,0,0,1,.5.5V479c0,.13,0,.22.1.24s.14,0,.25-.09a7.8,7.8,0,0,1,6.28-2.95A4.59,4.59,0,0,1,459.78,476.22Z"/><path d="M479.14,476.67h2.75c.4,0,.55.19.45.55l-11.63,32a.58.58,0,0,1-.6.4h-2.7c-.43,0-.58-.22-.45-.65l3.3-9.14a1.32,1.32,0,0,0,.1-.55,1.15,1.15,0,0,0-.1-.49l-8-21.57,0-.2c0-.26.15-.4.45-.4h2.85a.58.58,0,0,1,.59.4L472,494c.11.21.2.3.31.3s.26-.09.3-.3l5.89-16.92A.61.61,0,0,1,479.14,476.67Z"/></svg>